HIERARCHY
ROOT Hips
{
     OFFSET 15.33180 93.83130 7.06938
     CHANNELS 6 Xposition Yposition Zposition Zrotation Xrotation Yrotation
     JOINT Spine
     {
          OFFSET 0.00000 11.89050 0.00000
          CHANNELS 3 Zrotation Xrotation Yrotation
          JOINT Spine1
          {
               OFFSET 0.00000 25.65740 0.12766
               CHANNELS 3 Zrotation Xrotation Yrotation
               JOINT HEad
               {
                    OFFSET 0.00000 8.73416 0.01134
                    CHANNELS 3 Zrotation Xrotation Yrotation
                    End Site
                    {
                         OFFSET -0.29000 12.77420 2.51395
                    }
               }
               JOINT LeftShoulder1
               {
                    OFFSET 8.99000 -0.36225 -0.22000
                    CHANNELS 3 Zrotation Xrotation Yrotation
                    JOINT LeftArm
                    {
                         OFFSET 10.28270 -0.00338 0.32212
                         CHANNELS 3 Zrotation Xrotation Yrotation
                         JOINT LeftForeArm
                         {
                              OFFSET 32.76690 0.09914 -1.42434
                              CHANNELS 3 Zrotation Xrotation Yrotation
                              JOINT LeftHand
                              {
                                   OFFSET 27.56430 0.08536 1.02216
                                   CHANNELS 3 Zrotation Xrotation Yrotation
                                   End Site
                                   {
                                        OFFSET 16.74430 -0.60000 1.50291
                                   }
                              }
                         }
                    }
               }
               JOINT RightShoulder
               {
                    OFFSET -8.99000 -0.36225 -0.22000
                    CHANNELS 3 Zrotation Xrotation Yrotation
                    JOINT RightArm
                    {
                         OFFSET -10.28270 -0.00338 0.32212
                         CHANNELS 3 Zrotation Xrotation Yrotation
                         JOINT RightForeArm
                         {
                              OFFSET -32.89710 0.09914 -1.42434
                              CHANNELS 3 Zrotation Xrotation Yrotation
                              JOINT RightHand
                              {
                                   OFFSET -27.49210 0.08536 1.02216
                                   CHANNELS 3 Zrotation Xrotation Yrotation
                                   End Site
                                   {
                                        OFFSET -16.63120 -0.60000 1.50291
                                   }
                              }
                         }
                    }
               }
          }
     }
     JOINT LeftUpLeg
     {
          OFFSET 8.94580 -8.66707 0.10165
          CHANNELS 3 Zrotation Xrotation Yrotation
          JOINT LeftLeg
          {
               OFFSET 0.00000 -44.42270 1.37270
               CHANNELS 3 Zrotation Xrotation Yrotation
               JOINT LeftFoot
               {
                    OFFSET -0.25355 -42.09240 -1.46059
                    CHANNELS 3 Zrotation Xrotation Yrotation
                    JOINT LeftToes
                    {
                         OFFSET -0.04000 -4.41509 8.49910
                         CHANNELS 3 Zrotation Xrotation Yrotation
                         End Site
                         {
                              OFFSET 0.08000 -0.04745 9.77979
                         }
                    }
               }
          }
     }
     JOINT RightUpLeg
     {
          OFFSET -8.94580 -8.66707 0.10165
          CHANNELS 3 Zrotation Xrotation Yrotation
          JOINT RightLeg
          {
               OFFSET -0.00000 -44.42270 1.37270
               CHANNELS 3 Zrotation Xrotation Yrotation
               JOINT RightFoot
               {
                    OFFSET 0.25355 -42.09240 -1.46059
                    CHANNELS 3 Zrotation Xrotation Yrotation
                    JOINT RightToes
                    {
                         OFFSET 0.04000 -4.41509 8.49910
                         CHANNELS 3 Zrotation Xrotation Yrotation
                         End Site
                         {
                              OFFSET -0.08000 -0.13745 9.77979
                         }
                    }
               }
          }
     }
}
MOTION
Frames: 12
Frame Time: 0.01667
-7.76810 92.19130 42.37260 5.97380 11.25340 160.70700 0.47308 13.12410 2.18675 -10.45140 26.88430 7.68712 -1.39918 -1.19438 2.38713 -0.00000 0.00000 -0.00000 -160.23399 -55.85890 -129.32401 -115.81400 45.77160 -6.80340 21.34120 5.39219 -20.28520 8.89330 0.91240 4.55381 89.20220 -10.12230 78.13370 -3.33826 32.66410 104.67600 14.99310 10.39880 -0.65616 30.77900 -11.01840 -19.10840 -26.93960 15.92270 69.78760 -21.18400 5.27001 2.36242 9.62477 19.56680 -38.07900 -25.87490 22.56320 19.03790 38.08400 6.13638 -31.84010 -20.97170 -7.15170 -0.07349 2.14146 -34.69860 -4.46159 
-6.51090 93.37350 43.87840 4.81213 11.31380 160.73500 -1.68686 13.49740 2.46806 -10.79280 27.19930 7.54083 -1.68219 -0.92754 2.28943 -0.00000 0.00000 -0.00000 -158.29401 -54.05040 -128.58200 -115.71400 45.56340 -6.51848 21.55620 5.27320 -20.65310 9.41523 0.82354 3.61997 88.41200 -11.11530 78.73650 -3.29353 32.59980 104.23300 15.20630 10.39990 -0.69813 31.54450 -9.71478 -17.71840 -29.04710 13.22980 71.62890 -18.49430 8.43500 2.54217 9.73864 16.01250 -39.56210 -26.05580 23.05320 19.37970 37.64120 2.92610 -31.14400 -22.31490 -5.60836 0.24959 2.04359 -34.56840 -4.98414 
-5.01720 95.36260 45.59430 2.66431 11.49020 160.51100 -6.44185 14.09020 3.19587 -11.62490 27.64910 7.29021 -1.98760 -0.61854 2.51485 -0.00000 0.00000 -0.00000 -156.62399 -52.06470 -128.00400 -115.80600 45.28270 -6.16990 21.86470 5.11059 -21.12460 9.95366 0.72861 2.69990 87.47670 -11.95910 78.88020 -2.99775 32.51390 103.75000 15.35140 10.39690 -0.75239 31.27430 -6.73271 -16.02720 -31.43180 8.59934 73.90700 -13.21010 12.77970 2.26205 9.81425 9.69251 -42.51160 -27.70780 23.83790 20.63260 37.62100 -2.82360 -30.50440 -24.81430 -1.30703 1.27308 2.00286 -35.22760 -5.34458 
-3.93930 97.00480 46.83640 0.77110 11.66880 159.73399 -10.05120 14.39170 3.74347 -12.42420 27.97330 6.78510 -2.45389 -0.46609 3.19994 -0.00000 0.00000 -0.00000 -155.65100 -49.97080 -128.02699 -116.03600 44.97140 -5.85311 22.06190 4.98175 -21.54370 10.24840 0.65002 2.02489 86.60750 -12.64990 78.53360 -2.42016 32.43340 103.23900 15.30080 10.40760 -0.66381 29.76320 -5.90057 -12.95690 -34.55340 11.15890 76.34730 -10.30470 15.95380 2.00678 9.56651 2.09869 -46.42580 -28.94830 21.84660 20.46850 38.08680 -2.66941 -31.12830 -26.00430 2.37635 2.21414 2.06664 -36.85690 -5.31064 
-3.15939 98.84340 47.70390 -0.85205 11.69040 158.59900 -13.04220 14.43790 4.00097 -13.09290 28.13330 6.01538 -3.20651 -0.66978 4.38588 -0.00000 0.00000 -0.00000 -155.72200 -47.80930 -128.97099 -116.45100 44.50210 -5.51253 21.88870 4.97355 -21.79470 10.22900 0.61282 1.75149 85.84980 -13.31260 77.73620 -1.63194 32.40170 102.79400 14.99830 10.43560 -0.38727 27.52110 -5.52172 -8.68600 -37.51460 16.76780 77.96230 -8.47790 18.56250 1.80711 8.90169 -5.15464 -50.60810 -29.90630 18.40650 19.26190 38.79150 0.03487 -32.22200 -26.93320 7.07969 3.44886 2.24702 -38.85110 -4.81882 
-2.82393 100.82200 47.90170 -1.88129 11.51640 157.23199 -15.01690 14.23530 3.82207 -13.56370 28.08510 5.04890 -4.25796 -1.33805 5.99268 -0.00000 0.00000 -0.00000 -156.71400 -45.55980 -130.74699 -117.09200 43.71740 -5.04278 21.35340 5.08094 -21.90270 10.04180 0.62204 1.86602 85.05650 -14.09130 76.57550 -0.77955 32.43930 102.53200 14.46540 10.47270 0.03534 24.95750 -5.64134 -3.56824 -40.52500 25.15990 78.44800 -8.28999 19.68530 1.83872 7.97021 -11.03280 -54.31970 -30.69340 15.02240 17.48550 39.36600 2.66989 -32.65420 -27.99120 13.38060 5.19166 2.52021 -39.69190 -3.78463 
-2.79934 102.85400 47.68350 -2.08554 10.98260 155.50800 -15.34390 13.88190 3.35298 -13.54670 27.88620 3.97455 -5.52149 -2.45903 7.85991 -0.00000 0.00000 -0.00000 -158.14799 -43.17040 -133.00101 -117.93900 42.55220 -4.37443 20.72280 5.21400 -22.00050 9.92806 0.66515 2.22338 84.01520 -15.05880 75.15310 0.03227 32.53030 102.47200 13.78990 10.51330 0.56343 22.39680 -4.30248 0.72629 -42.24180 31.01960 77.84130 -7.74992 20.43880 1.75645 6.99894 -15.41050 -57.29040 -30.62060 11.87270 14.98810 39.15170 4.67340 -31.66770 -29.11280 20.49540 7.29744 2.80879 -38.24890 -2.09051 
-2.98293 104.40900 47.22040 -1.75410 10.20890 153.58900 -14.72520 13.52810 2.84585 -12.94990 27.67280 2.82518 -6.88769 -3.93296 9.79607 -0.00000 0.00000 -0.00000 -159.64700 -40.57050 -135.43401 -118.99800 41.01390 -3.44569 20.21280 5.30179 -22.19250 10.06710 0.72253 2.61968 82.63810 -16.20940 73.58220 0.76278 32.65560 102.55400 13.10650 10.55520 1.15712 19.72540 -2.32199 3.63860 -43.21770 34.77050 76.88880 -7.48860 20.70400 1.70821 6.05410 -18.81360 -59.79450 -29.55170 7.96078 11.75080 38.10890 7.97344 -29.73000 -29.15260 26.01050 8.78747 3.06534 -35.64910 0.23170 
-3.27595 105.22600 46.66400 -1.18894 9.35707 151.82401 -13.79130 13.25480 2.35917 -11.90870 27.55020 1.55857 -8.23965 -5.60212 11.62450 -0.00000 0.00000 -0.00000 -161.05901 -37.68670 -137.83400 -120.27900 39.19020 -2.22948 19.84710 5.34116 -22.46880 10.53890 0.77336 2.85653 81.00260 -17.52660 71.96130 1.38058 32.82220 102.71900 12.53730 10.59800 1.76740 16.96150 0.08018 4.76015 -43.98490 36.04420 76.19690 -7.39991 20.50400 1.67451 5.04883 -21.84240 -62.21720 -28.03570 3.06111 8.37478 36.96160 12.66880 -27.66750 -27.85170 28.29520 8.97296 3.37314 -34.01720 2.89737 
-3.63720 105.41300 46.10210 -0.25573 8.28648 150.59700 -12.26800 13.10960 1.66801 -10.39830 27.49770 0.08929 -9.39926 -7.30862 13.25870 -0.00000 0.00000 -0.00000 -162.24899 -34.54870 -139.99300 -121.65200 37.32350 -0.85548 19.55910 5.36278 -22.74720 11.37840 0.80958 2.86666 79.21670 -19.08030 70.31800 1.90328 33.06030 102.88200 12.11790 10.64200 2.36380 14.47750 2.83610 3.80374 -44.31530 34.40030 75.74870 -7.20082 19.99740 1.59673 3.91212 -24.75440 -64.66550 -26.24040 -0.50389 5.89149 35.66290 13.93840 -25.31710 -26.64500 28.63100 8.65665 3.73347 -33.71180 5.23761 
-3.96259 104.94900 45.61220 0.83372 6.99700 150.08900 -10.50700 13.02830 0.72176 -8.58388 27.39190 -1.63570 -10.09370 -8.97577 14.71490 -0.00000 0.00000 -0.00000 -163.06200 -31.30110 -141.78000 -122.91500 35.70160 0.47100 19.30080 5.38825 -22.96840 12.59470 0.83931 2.73192 77.30290 -21.01780 68.61400 2.47975 33.39850 102.89000 11.79670 10.68530 2.93609 12.22590 5.71938 0.96146 -43.75130 30.22920 75.12570 -7.05438 19.04740 1.50855 2.76484 -27.31470 -66.79380 -24.30230 -2.78942 4.31210 34.46070 12.04580 -23.21070 -25.48690 26.95420 7.87377 3.83334 -33.32500 6.17135 
-4.14897 103.84600 45.18380 1.91489 5.50808 150.28700 -8.76259 12.90520 -0.47876 -6.63182 27.09990 -3.56186 -10.04850 -10.64430 16.00760 -0.00000 0.00000 -0.00000 -163.49100 -27.99730 -143.20700 -124.01700 34.39700 1.71595 19.06520 5.42104 -23.11920 14.08390 0.85942 2.49244 75.27020 -23.41430 66.85690 3.29673 33.83030 102.59600 11.53060 10.72210 3.44209 10.10740 8.66080 -3.25519 -41.81610 24.21230 73.77380 -7.22685 17.28530 1.44817 1.90586 -29.09180 -67.98000 -22.37520 -4.03052 3.44484 33.49060 7.86815 -21.39060 -24.23610 23.79960 6.77196 3.34453 -31.12730 5.07362 
